<mxfile host="app.diagrams.net" modified="2024-05-15T16:56:17.021Z" agent="Mozilla/5.0 (Windows NT 10.0; Win64; x64) AppleWebKit/537.36 (KHTML, like Gecko) Chrome/124.0.0.0 Safari/537.36" etag="YrcW4yNQvvgagz1mp9BY" version="24.4.0" type="device">
  <diagram name="PÃ¡gina-1" id="yimdOHPpIYH52loGB8fc">
    <mxGraphModel dx="1434" dy="746" grid="1" gridSize="10" guides="1" tooltips="1" connect="1" arrows="1" fold="1" page="1" pageScale="1" pageWidth="827" pageHeight="1169" math="0" shadow="0">
      <root>
        <mxCell id="0" />
        <mxCell id="1" parent="0" />
        <mxCell id="s78NcPnJN6FUGEPkhZ8m-1" value="Scene root" style="rounded=1;whiteSpace=wrap;html=1;" parent="1" vertex="1">
          <mxGeometry x="300" y="80" width="90" height="30" as="geometry" />
        </mxCell>
        <mxCell id="s78NcPnJN6FUGEPkhZ8m-4" value="Camera" style="rounded=1;whiteSpace=wrap;html=1;" parent="1" vertex="1">
          <mxGeometry x="40" y="220" width="80" height="30" as="geometry" />
        </mxCell>
        <mxCell id="s78NcPnJN6FUGEPkhZ8m-6" value="Sun" style="rounded=1;whiteSpace=wrap;html=1;" parent="1" vertex="1">
          <mxGeometry x="200" y="220" width="80" height="30" as="geometry" />
        </mxCell>
        <mxCell id="s78NcPnJN6FUGEPkhZ8m-7" value="trees" style="rounded=1;whiteSpace=wrap;html=1;" parent="1" vertex="1">
          <mxGeometry x="150" y="440" width="80" height="30" as="geometry" />
        </mxCell>
        <mxCell id="s78NcPnJN6FUGEPkhZ8m-8" value="river" style="rounded=1;whiteSpace=wrap;html=1;" parent="1" vertex="1">
          <mxGeometry x="270" y="440" width="80" height="30" as="geometry" />
        </mxCell>
        <mxCell id="s78NcPnJN6FUGEPkhZ8m-9" value="waterfall" style="rounded=1;whiteSpace=wrap;html=1;" parent="1" vertex="1">
          <mxGeometry x="270" y="510" width="80" height="30" as="geometry" />
        </mxCell>
        <mxCell id="s78NcPnJN6FUGEPkhZ8m-10" value="birds" style="rounded=1;whiteSpace=wrap;html=1;" parent="1" vertex="1">
          <mxGeometry x="590" y="440" width="80" height="30" as="geometry" />
        </mxCell>
        <mxCell id="s78NcPnJN6FUGEPkhZ8m-11" value="flower" style="rounded=1;whiteSpace=wrap;html=1;" parent="1" vertex="1">
          <mxGeometry x="400" y="499" width="80" height="30" as="geometry" />
        </mxCell>
        <mxCell id="s78NcPnJN6FUGEPkhZ8m-12" value="butterfly" style="rounded=1;whiteSpace=wrap;html=1;" parent="1" vertex="1">
          <mxGeometry x="400" y="440" width="80" height="30" as="geometry" />
        </mxCell>
        <mxCell id="s78NcPnJN6FUGEPkhZ8m-13" value="mountains" style="rounded=1;whiteSpace=wrap;html=1;" parent="1" vertex="1">
          <mxGeometry x="500" y="440" width="80" height="30" as="geometry" />
        </mxCell>
        <mxCell id="s78NcPnJN6FUGEPkhZ8m-16" value="BARN" style="rounded=1;whiteSpace=wrap;html=1;" parent="1" vertex="1">
          <mxGeometry x="1120" y="435" width="80" height="30" as="geometry" />
        </mxCell>
        <mxCell id="s78NcPnJN6FUGEPkhZ8m-17" value="Barn" style="rounded=1;whiteSpace=wrap;html=1;" parent="1" vertex="1">
          <mxGeometry x="950" y="555" width="80" height="30" as="geometry" />
        </mxCell>
        <mxCell id="s78NcPnJN6FUGEPkhZ8m-18" value="" style="endArrow=none;html=1;rounded=0;exitX=0.413;exitY=0;exitDx=0;exitDy=0;exitPerimeter=0;entryX=0.25;entryY=1;entryDx=0;entryDy=0;" parent="1" source="s78NcPnJN6FUGEPkhZ8m-17" target="s78NcPnJN6FUGEPkhZ8m-16" edge="1">
          <mxGeometry width="50" height="50" relative="1" as="geometry">
            <mxPoint x="1070" y="405" as="sourcePoint" />
            <mxPoint x="1120" y="355" as="targetPoint" />
          </mxGeometry>
        </mxCell>
        <mxCell id="s78NcPnJN6FUGEPkhZ8m-20" value="BarnFence" style="rounded=1;whiteSpace=wrap;html=1;" parent="1" vertex="1">
          <mxGeometry x="1040" y="555" width="80" height="30" as="geometry" />
        </mxCell>
        <mxCell id="s78NcPnJN6FUGEPkhZ8m-21" value="Cow" style="rounded=1;whiteSpace=wrap;html=1;" parent="1" vertex="1">
          <mxGeometry x="1230" y="555" width="80" height="30" as="geometry" />
        </mxCell>
        <mxCell id="s78NcPnJN6FUGEPkhZ8m-22" value="Horse" style="rounded=1;whiteSpace=wrap;html=1;" parent="1" vertex="1">
          <mxGeometry x="1140" y="555" width="80" height="30" as="geometry" />
        </mxCell>
        <mxCell id="s78NcPnJN6FUGEPkhZ8m-23" value="POND" style="rounded=1;whiteSpace=wrap;html=1;" parent="1" vertex="1">
          <mxGeometry x="810" y="435" width="80" height="30" as="geometry" />
        </mxCell>
        <mxCell id="s78NcPnJN6FUGEPkhZ8m-25" value="pond" style="rounded=1;whiteSpace=wrap;html=1;" parent="1" vertex="1">
          <mxGeometry x="750" y="555" width="80" height="30" as="geometry" />
        </mxCell>
        <mxCell id="s78NcPnJN6FUGEPkhZ8m-27" value="duck" style="rounded=1;whiteSpace=wrap;html=1;" parent="1" vertex="1">
          <mxGeometry x="840" y="555" width="80" height="30" as="geometry" />
        </mxCell>
        <mxCell id="s78NcPnJN6FUGEPkhZ8m-28" value="" style="endArrow=none;html=1;rounded=0;exitX=0.25;exitY=0;exitDx=0;exitDy=0;entryX=0.25;entryY=1;entryDx=0;entryDy=0;" parent="1" source="s78NcPnJN6FUGEPkhZ8m-25" target="s78NcPnJN6FUGEPkhZ8m-23" edge="1">
          <mxGeometry width="50" height="50" relative="1" as="geometry">
            <mxPoint x="770" y="545" as="sourcePoint" />
            <mxPoint x="820" y="495" as="targetPoint" />
          </mxGeometry>
        </mxCell>
        <mxCell id="s78NcPnJN6FUGEPkhZ8m-29" value="" style="endArrow=none;html=1;rounded=0;exitX=0.5;exitY=0;exitDx=0;exitDy=0;entryX=0.75;entryY=1;entryDx=0;entryDy=0;" parent="1" source="s78NcPnJN6FUGEPkhZ8m-27" target="s78NcPnJN6FUGEPkhZ8m-23" edge="1">
          <mxGeometry width="50" height="50" relative="1" as="geometry">
            <mxPoint x="910" y="535" as="sourcePoint" />
            <mxPoint x="960" y="485" as="targetPoint" />
          </mxGeometry>
        </mxCell>
        <mxCell id="s78NcPnJN6FUGEPkhZ8m-30" value="" style="endArrow=none;html=1;rounded=0;exitX=0.5;exitY=0;exitDx=0;exitDy=0;entryX=0.5;entryY=1;entryDx=0;entryDy=0;" parent="1" source="s78NcPnJN6FUGEPkhZ8m-20" target="s78NcPnJN6FUGEPkhZ8m-16" edge="1">
          <mxGeometry width="50" height="50" relative="1" as="geometry">
            <mxPoint x="1053" y="425" as="sourcePoint" />
            <mxPoint x="1120" y="365" as="targetPoint" />
          </mxGeometry>
        </mxCell>
        <mxCell id="s78NcPnJN6FUGEPkhZ8m-35" value="" style="endArrow=none;html=1;rounded=0;exitX=0.25;exitY=0;exitDx=0;exitDy=0;" parent="1" source="s78NcPnJN6FUGEPkhZ8m-22" edge="1">
          <mxGeometry width="50" height="50" relative="1" as="geometry">
            <mxPoint x="1250" y="515" as="sourcePoint" />
            <mxPoint x="1170" y="465" as="targetPoint" />
          </mxGeometry>
        </mxCell>
        <mxCell id="s78NcPnJN6FUGEPkhZ8m-36" value="" style="endArrow=none;html=1;rounded=0;exitX=0.5;exitY=0;exitDx=0;exitDy=0;entryX=0.75;entryY=1;entryDx=0;entryDy=0;" parent="1" source="s78NcPnJN6FUGEPkhZ8m-21" target="s78NcPnJN6FUGEPkhZ8m-16" edge="1">
          <mxGeometry width="50" height="50" relative="1" as="geometry">
            <mxPoint x="1310" y="485" as="sourcePoint" />
            <mxPoint x="1360" y="435" as="targetPoint" />
          </mxGeometry>
        </mxCell>
        <mxCell id="s78NcPnJN6FUGEPkhZ8m-38" value="Platform1" style="rounded=1;whiteSpace=wrap;html=1;" parent="1" vertex="1">
          <mxGeometry x="340" y="220" width="80" height="30" as="geometry" />
        </mxCell>
        <mxCell id="s78NcPnJN6FUGEPkhZ8m-39" value="Platform2" style="rounded=1;whiteSpace=wrap;html=1;" parent="1" vertex="1">
          <mxGeometry x="910" y="236" width="80" height="30" as="geometry" />
        </mxCell>
        <mxCell id="s78NcPnJN6FUGEPkhZ8m-40" value="road1" style="rounded=1;whiteSpace=wrap;html=1;" parent="1" vertex="1">
          <mxGeometry x="30" y="440.5" width="80" height="30" as="geometry" />
        </mxCell>
        <mxCell id="s78NcPnJN6FUGEPkhZ8m-41" value="road2" style="rounded=1;whiteSpace=wrap;html=1;" parent="1" vertex="1">
          <mxGeometry x="900" y="436" width="80" height="30" as="geometry" />
        </mxCell>
        <mxCell id="s78NcPnJN6FUGEPkhZ8m-42" value="house" style="rounded=1;whiteSpace=wrap;html=1;" parent="1" vertex="1">
          <mxGeometry x="950" y="476" width="80" height="30" as="geometry" />
        </mxCell>
        <mxCell id="s78NcPnJN6FUGEPkhZ8m-52" value="" style="endArrow=none;html=1;rounded=0;exitX=0.5;exitY=0;exitDx=0;exitDy=0;entryX=0.25;entryY=1;entryDx=0;entryDy=0;" parent="1" source="s78NcPnJN6FUGEPkhZ8m-4" target="s78NcPnJN6FUGEPkhZ8m-1" edge="1">
          <mxGeometry width="50" height="50" relative="1" as="geometry">
            <mxPoint x="80" y="190" as="sourcePoint" />
            <mxPoint x="130" y="140" as="targetPoint" />
          </mxGeometry>
        </mxCell>
        <mxCell id="s78NcPnJN6FUGEPkhZ8m-53" value="" style="endArrow=none;html=1;rounded=0;exitX=0.5;exitY=0;exitDx=0;exitDy=0;" parent="1" source="s78NcPnJN6FUGEPkhZ8m-6" edge="1">
          <mxGeometry width="50" height="50" relative="1" as="geometry">
            <mxPoint x="280" y="200" as="sourcePoint" />
            <mxPoint x="340" y="110" as="targetPoint" />
          </mxGeometry>
        </mxCell>
        <mxCell id="s78NcPnJN6FUGEPkhZ8m-54" value="" style="endArrow=none;html=1;rounded=0;exitX=0.375;exitY=0;exitDx=0;exitDy=0;exitPerimeter=0;" parent="1" source="s78NcPnJN6FUGEPkhZ8m-38" edge="1">
          <mxGeometry width="50" height="50" relative="1" as="geometry">
            <mxPoint x="370" y="200" as="sourcePoint" />
            <mxPoint x="360" y="110" as="targetPoint" />
          </mxGeometry>
        </mxCell>
        <mxCell id="s78NcPnJN6FUGEPkhZ8m-55" value="" style="endArrow=none;html=1;rounded=0;exitX=0.5;exitY=0;exitDx=0;exitDy=0;entryX=1;entryY=0.75;entryDx=0;entryDy=0;" parent="1" source="s78NcPnJN6FUGEPkhZ8m-39" target="s78NcPnJN6FUGEPkhZ8m-1" edge="1">
          <mxGeometry width="50" height="50" relative="1" as="geometry">
            <mxPoint x="470" y="160" as="sourcePoint" />
            <mxPoint x="520" y="110" as="targetPoint" />
          </mxGeometry>
        </mxCell>
        <mxCell id="s78NcPnJN6FUGEPkhZ8m-56" value="" style="endArrow=none;html=1;rounded=0;exitX=0.613;exitY=-0.1;exitDx=0;exitDy=0;exitPerimeter=0;entryX=0;entryY=1;entryDx=0;entryDy=0;" parent="1" source="s78NcPnJN6FUGEPkhZ8m-40" target="s78NcPnJN6FUGEPkhZ8m-38" edge="1">
          <mxGeometry width="50" height="50" relative="1" as="geometry">
            <mxPoint x="100" y="400" as="sourcePoint" />
            <mxPoint x="150" y="350" as="targetPoint" />
          </mxGeometry>
        </mxCell>
        <mxCell id="s78NcPnJN6FUGEPkhZ8m-57" value="" style="endArrow=none;html=1;rounded=0;exitX=0.5;exitY=0;exitDx=0;exitDy=0;entryX=0.138;entryY=0.967;entryDx=0;entryDy=0;entryPerimeter=0;" parent="1" source="s78NcPnJN6FUGEPkhZ8m-7" target="s78NcPnJN6FUGEPkhZ8m-38" edge="1">
          <mxGeometry width="50" height="50" relative="1" as="geometry">
            <mxPoint x="190" y="410" as="sourcePoint" />
            <mxPoint x="240" y="360" as="targetPoint" />
          </mxGeometry>
        </mxCell>
        <mxCell id="s78NcPnJN6FUGEPkhZ8m-59" value="" style="endArrow=none;html=1;rounded=0;exitX=1;exitY=0.5;exitDx=0;exitDy=0;entryX=0.25;entryY=1;entryDx=0;entryDy=0;" parent="1" source="s78NcPnJN6FUGEPkhZ8m-8" target="s78NcPnJN6FUGEPkhZ8m-38" edge="1">
          <mxGeometry width="50" height="50" relative="1" as="geometry">
            <mxPoint x="320" y="400" as="sourcePoint" />
            <mxPoint x="370" y="350" as="targetPoint" />
            <Array as="points">
              <mxPoint x="360" y="455" />
            </Array>
          </mxGeometry>
        </mxCell>
        <mxCell id="s78NcPnJN6FUGEPkhZ8m-62" value="" style="endArrow=none;html=1;rounded=0;exitX=1;exitY=0.5;exitDx=0;exitDy=0;" parent="1" source="s78NcPnJN6FUGEPkhZ8m-9" edge="1">
          <mxGeometry width="50" height="50" relative="1" as="geometry">
            <mxPoint x="330" y="540" as="sourcePoint" />
            <mxPoint x="360" y="450" as="targetPoint" />
            <Array as="points">
              <mxPoint x="360" y="525" />
            </Array>
          </mxGeometry>
        </mxCell>
        <mxCell id="s78NcPnJN6FUGEPkhZ8m-66" value="" style="endArrow=none;html=1;rounded=0;exitX=0;exitY=0.5;exitDx=0;exitDy=0;" parent="1" source="s78NcPnJN6FUGEPkhZ8m-11" edge="1">
          <mxGeometry width="50" height="50" relative="1" as="geometry">
            <mxPoint x="320" y="550" as="sourcePoint" />
            <mxPoint x="390" y="450" as="targetPoint" />
            <Array as="points">
              <mxPoint x="390" y="514" />
            </Array>
          </mxGeometry>
        </mxCell>
        <mxCell id="s78NcPnJN6FUGEPkhZ8m-67" value="" style="endArrow=none;html=1;rounded=0;exitX=0.85;exitY=0.967;exitDx=0;exitDy=0;entryX=0.113;entryY=-0.033;entryDx=0;entryDy=0;entryPerimeter=0;exitPerimeter=0;" parent="1" source="s78NcPnJN6FUGEPkhZ8m-38" target="s78NcPnJN6FUGEPkhZ8m-13" edge="1">
          <mxGeometry width="50" height="50" relative="1" as="geometry">
            <mxPoint x="540" y="340" as="sourcePoint" />
            <mxPoint x="590" y="290" as="targetPoint" />
          </mxGeometry>
        </mxCell>
        <mxCell id="s78NcPnJN6FUGEPkhZ8m-68" value="" style="endArrow=none;html=1;rounded=0;entryX=0;entryY=0;entryDx=0;entryDy=0;exitX=1;exitY=1;exitDx=0;exitDy=0;" parent="1" source="s78NcPnJN6FUGEPkhZ8m-38" target="s78NcPnJN6FUGEPkhZ8m-10" edge="1">
          <mxGeometry width="50" height="50" relative="1" as="geometry">
            <mxPoint x="580" y="310" as="sourcePoint" />
            <mxPoint x="630" y="260" as="targetPoint" />
          </mxGeometry>
        </mxCell>
        <mxCell id="s78NcPnJN6FUGEPkhZ8m-69" value="" style="endArrow=none;html=1;rounded=0;entryX=0.625;entryY=1;entryDx=0;entryDy=0;entryPerimeter=0;exitX=0;exitY=0.5;exitDx=0;exitDy=0;" parent="1" source="s78NcPnJN6FUGEPkhZ8m-12" target="s78NcPnJN6FUGEPkhZ8m-38" edge="1">
          <mxGeometry width="50" height="50" relative="1" as="geometry">
            <mxPoint x="380" y="360" as="sourcePoint" />
            <mxPoint x="430" y="310" as="targetPoint" />
            <Array as="points">
              <mxPoint x="390" y="455" />
            </Array>
          </mxGeometry>
        </mxCell>
        <mxCell id="s78NcPnJN6FUGEPkhZ8m-70" value="bridge" style="rounded=1;whiteSpace=wrap;html=1;" parent="1" vertex="1">
          <mxGeometry x="680" y="440" width="80" height="30" as="geometry" />
        </mxCell>
        <mxCell id="s78NcPnJN6FUGEPkhZ8m-71" value="" style="endArrow=none;html=1;rounded=0;exitX=1;exitY=0.5;exitDx=0;exitDy=0;" parent="1" source="s78NcPnJN6FUGEPkhZ8m-38" target="s78NcPnJN6FUGEPkhZ8m-70" edge="1">
          <mxGeometry width="50" height="50" relative="1" as="geometry">
            <mxPoint x="600" y="340" as="sourcePoint" />
            <mxPoint x="650" y="290" as="targetPoint" />
          </mxGeometry>
        </mxCell>
        <mxCell id="s78NcPnJN6FUGEPkhZ8m-72" value="" style="endArrow=none;html=1;rounded=0;exitX=0.5;exitY=0;exitDx=0;exitDy=0;entryX=0.175;entryY=1;entryDx=0;entryDy=0;entryPerimeter=0;" parent="1" source="s78NcPnJN6FUGEPkhZ8m-23" target="s78NcPnJN6FUGEPkhZ8m-39" edge="1">
          <mxGeometry width="50" height="50" relative="1" as="geometry">
            <mxPoint x="840" y="336" as="sourcePoint" />
            <mxPoint x="1050" y="266" as="targetPoint" />
          </mxGeometry>
        </mxCell>
        <mxCell id="s78NcPnJN6FUGEPkhZ8m-73" value="" style="endArrow=none;html=1;rounded=0;exitX=0.5;exitY=0;exitDx=0;exitDy=0;entryX=0.5;entryY=1;entryDx=0;entryDy=0;" parent="1" source="s78NcPnJN6FUGEPkhZ8m-41" target="s78NcPnJN6FUGEPkhZ8m-39" edge="1">
          <mxGeometry width="50" height="50" relative="1" as="geometry">
            <mxPoint x="990" y="296" as="sourcePoint" />
            <mxPoint x="1040" y="246" as="targetPoint" />
          </mxGeometry>
        </mxCell>
        <mxCell id="s78NcPnJN6FUGEPkhZ8m-74" value="" style="endArrow=none;html=1;rounded=0;exitX=1;exitY=1;exitDx=0;exitDy=0;entryX=0.25;entryY=0;entryDx=0;entryDy=0;" parent="1" source="s78NcPnJN6FUGEPkhZ8m-39" target="s78NcPnJN6FUGEPkhZ8m-16" edge="1">
          <mxGeometry width="50" height="50" relative="1" as="geometry">
            <mxPoint x="1120" y="296" as="sourcePoint" />
            <mxPoint x="1170" y="246" as="targetPoint" />
          </mxGeometry>
        </mxCell>
        <mxCell id="s78NcPnJN6FUGEPkhZ8m-75" value="" style="endArrow=none;html=1;rounded=0;exitX=0.75;exitY=1;exitDx=0;exitDy=0;entryX=0.663;entryY=0;entryDx=0;entryDy=0;entryPerimeter=0;" parent="1" source="s78NcPnJN6FUGEPkhZ8m-39" target="s78NcPnJN6FUGEPkhZ8m-42" edge="1">
          <mxGeometry width="50" height="50" relative="1" as="geometry">
            <mxPoint x="1270" y="286" as="sourcePoint" />
            <mxPoint x="1320" y="236" as="targetPoint" />
          </mxGeometry>
        </mxCell>
        <mxCell id="ZCkEa-4Q0tNo5iQg6ibJ-1" value="Chopped&lt;div&gt;trees&lt;/div&gt;" style="rounded=1;whiteSpace=wrap;html=1;" vertex="1" parent="1">
          <mxGeometry x="1260" y="435" width="80" height="41" as="geometry" />
        </mxCell>
        <mxCell id="ZCkEa-4Q0tNo5iQg6ibJ-2" value="" style="endArrow=none;html=1;rounded=0;exitX=1;exitY=0.75;exitDx=0;exitDy=0;entryX=0;entryY=0;entryDx=0;entryDy=0;" edge="1" parent="1" source="s78NcPnJN6FUGEPkhZ8m-39" target="ZCkEa-4Q0tNo5iQg6ibJ-1">
          <mxGeometry width="50" height="50" relative="1" as="geometry">
            <mxPoint x="1180" y="286" as="sourcePoint" />
            <mxPoint x="1230" y="236" as="targetPoint" />
          </mxGeometry>
        </mxCell>
        <mxCell id="ZCkEa-4Q0tNo5iQg6ibJ-5" value="trees" style="rounded=1;whiteSpace=wrap;html=1;" vertex="1" parent="1">
          <mxGeometry x="1020" y="436" width="80" height="30" as="geometry" />
        </mxCell>
        <mxCell id="ZCkEa-4Q0tNo5iQg6ibJ-6" value="" style="endArrow=none;html=1;rounded=0;exitX=0.5;exitY=0;exitDx=0;exitDy=0;" edge="1" parent="1" source="ZCkEa-4Q0tNo5iQg6ibJ-5">
          <mxGeometry width="50" height="50" relative="1" as="geometry">
            <mxPoint x="1040" y="436" as="sourcePoint" />
            <mxPoint x="980" y="266" as="targetPoint" />
          </mxGeometry>
        </mxCell>
      </root>
    </mxGraphModel>
  </diagram>
</mxfile>
